# xmcd CD database file
# Copyright (C) 1996 Ti Kan
#
# Track frame offsets:
#  150
#  12062
#  23690
#  37037
#  49045
#  63287
#  77312
#  90242
#  102857
#  115905
#  128945
#  142322
#  155680
#  167880
#  181320
#  194340
#
# Disc length: 2764 seconds
#
# Revision: 1
# Processed by: cddbd v1.4b41PL1 Copyright (c) Steve Scherf et al.
# Submitted via: CDWizzard Release:4.12
#
DISCID=cb0aca10
DTITLE=Big Maceo - The Victor/Bluebird Recordings:  1945 - 1947
DYEAR=1900
DGENRE=
TTITLE0=Kid Man Blues
TTITLE1=I'm So Worried
TTITLE2=Things Have Changed
TTITLE3=My Own Troubles
TTITLE4=Maceo's 32-20
TTITLE5=Come On Home
TTITLE6=Texas Stomp
TTITLE7=Detroit Stomp
TTITLE8=Winter Time Blues
TTITLE9=Won't Be A Fool No More
TTITLE10=Big Road Blues
TTITLE11=Chicago Breakdown
TTITLE12=Broke And Hungry Blues
TTITLE13=If You Ever Change Your Ways
TTITLE14=It's All Over Now
TTITLE15=I Lost My Woman
EXTD=RCA 07863 66716-2\n\nSubmitted 6/17/97\n[Jmccoy@efn.org]
EXTT0=
EXTT1=
EXTT2=
EXTT3=
EXTT4=
EXTT5=
EXTT6=
EXTT7=
EXTT8=
EXTT9=
EXTT10=
EXTT11=
EXTT12=
EXTT13=
EXTT14=
EXTT15=
PLAYORDER=
